STARTFONT 2.1
COMMENT
COMMENT Converted from OpenType font "Q:\font stuff\winfont\Midevil Normal.ttf" by "otf2bdf 3.0".
COMMENT
FONT -FreeType-Midevil-Medium-R-Normal--36-360-72-72-P-153-ISO10646-1
SIZE 36 72 72
FONTBOUNDINGBOX 41 41 -4 -9
STARTPROPERTIES 19
FOUNDRY "FreeType"
FAMILY_NAME "Midevil"
WEIGHT_NAME "Medium"
SLANT "R"
SETWIDTH_NAME "Normal"
ADD_STYLE_NAME ""
PIXEL_SIZE 36
POINT_SIZE 360
RESOLUTION_X 72
RESOLUTION_Y 72
SPACING "P"
AVERAGE_WIDTH 153
CHARSET_REGISTRY "ISO10646"
CHARSET_ENCODING "1"
FONT_ASCENT 32
FONT_DESCENT 8
COPYRIGHT "Copyright 1994 Bay Animation Inc. All Rights Reserved."
_OTF_FONTFILE "Q:\font stuff\winfont\Midevil Normal.ttf"
_OTF_PSNAME "MidevilNormal"
ENDPROPERTIES
CHARS 216
STARTCHAR 0020
ENCODING 32
SWIDTH 222 0
DWIDTH 8 0
BBX 0 0 0 0
BITMAP
ENDCHAR
STARTCHAR 0021
ENCODING 33
SWIDTH 222 0
DWIDTH 8 0
BBX 5 22 2 0
BITMAP
20
70
78
F8
78
70
70
70
70
30
30
20
20
20
20
00
00
20
70
F8
70
20
ENDCHAR
STARTCHAR 0022
ENCODING 34
SWIDTH 333 0
DWIDTH 12 0
BBX 8 10 2 15
BITMAP
E7
E7
E7
E7
C3
43
42
42
42
42
ENDCHAR
STARTCHAR 0023
ENCODING 35
SWIDTH 750 0
DWIDTH 27 0
BBX 23 25 2 1
BITMAP
001838
003830
003870
003070
007060
0070E0
0060E0
0060C0
1FFFFE
3FFFFE
3FFFFC
01C380
01C380
018300
038700
7FFFF8
FFFFF8
FFFFF0
070E00
060C00
0E1C00
0C1C00
1C1800
1C3800
183000
ENDCHAR
STARTCHAR 0024
ENCODING 36
SWIDTH 444 0
DWIDTH 16 0
BBX 15 28 0 -4
BITMAP
0180
0180
0180
0FF0
3FF8
61F0
6180
E180
E180
E180
F198
F1BC
79FC
7F9E
3D8E
118E
018E
018E
018C
018C
7998
FFD0
7FE0
03C0
0180
0180
0180
0180
ENDCHAR
STARTCHAR 0025
ENCODING 37
SWIDTH 694 0
DWIDTH 25 0
BBX 23 22 1 0
BITMAP
000060
1E00C0
3F0080
638180
41C300
C0C300
C0C600
C0C600
E0CC00
E09860
7198F0
3F317C
1E331C
00620E
006606
00C606
018606
018706
030384
0303C8
0601F0
040060
ENDCHAR
STARTCHAR 0026
ENCODING 38
SWIDTH 666 0
DWIDTH 24 0
BBX 20 22 2 0
BITMAP
003000
00F800
033800
0E1800
1E1800
1F1800
0F1000
0FB000
07C000
03C000
03C000
05E080
09E1F0
10F3E0
7074C0
F07800
783C00
7C7C00
3C9E10
1F1FE0
1C0FE0
080780
ENDCHAR
STARTCHAR 0027
ENCODING 39
SWIDTH 166 0
DWIDTH 6 0
BBX 3 10 2 15
BITMAP
E0
E0
E0
E0
E0
40
40
40
40
40
ENDCHAR
STARTCHAR 0028
ENCODING 40
SWIDTH 333 0
DWIDTH 12 0
BBX 9 31 3 -3
BITMAP
0100
0200
0400
0C00
0800
1800
1800
3000
3000
7000
6000
6000
E000
E000
E000
E000
E000
E000
E000
F000
F000
F000
7800
7800
7C00
3C00
3E80
1F00
1E00
0C00
0400
ENDCHAR
STARTCHAR 0029
ENCODING 41
SWIDTH 333 0
DWIDTH 12 0
BBX 9 31 0 -3
BITMAP
1800
3800
3C00
7E00
FE00
3F00
1F00
1F00
0F00
0F80
0780
0780
0780
0380
0380
0380
0380
0380
0300
0300
0300
0700
0600
0600
0C00
0C00
0800
1000
3000
2000
4000
ENDCHAR
STARTCHAR 002A
ENCODING 42
SWIDTH 416 0
DWIDTH 15 0
BBX 10 9 2 12
BITMAP
3300
3300
1E00
4C80
7B80
EDC0
0C00
0E00
0C00
ENDCHAR
STARTCHAR 002B
ENCODING 43
SWIDTH 805 0
DWIDTH 29 0
BBX 21 21 4 1
BITMAP
007000
007000
007000
007000
007000
007000
007000
007000
007000
FFFFF8
FFFFF8
FFFFF8
007000
007000
007000
007000
007000
007000
007000
007000
007000
ENDCHAR
STARTCHAR 002C
ENCODING 44
SWIDTH 222 0
DWIDTH 8 0
BBX 5 8 1 -2
BITMAP
20
70
F8
78
70
60
40
80
ENDCHAR
STARTCHAR 002D
ENCODING 45
SWIDTH 305 0
DWIDTH 11 0
BBX 8 5 2 7
BITMAP
01
7F
7E
FE
80
ENDCHAR
STARTCHAR 002E
ENCODING 46
SWIDTH 222 0
DWIDTH 8 0
BBX 5 5 2 1
BITMAP
20
70
F8
70
20
ENDCHAR
STARTCHAR 002F
ENCODING 47
SWIDTH 305 0
DWIDTH 11 0
BBX 10 25 0 -4
BITMAP
00C0
00C0
0180
0180
0180
0300
0300
0300
0600
0600
0600
0C00
0C00
0C00
1800
1800
1800
1000
3000
3000
2000
6000
6000
4000
C000
ENDCHAR
STARTCHAR 0030
ENCODING 48
SWIDTH 444 0
DWIDTH 16 0
BBX 14 21 1 1
BITMAP
0780
0FC0
1FE0
31F0
30F8
6078
603C
E03C
E01C
E01C
E01C
E01C
F01C
F018
7818
7830
7C30
3E20
1FC0
0F80
0300
ENDCHAR
STARTCHAR 0031
ENCODING 49
SWIDTH 305 0
DWIDTH 11 0
BBX 9 21 1 1
BITMAP
3800
7800
BC00
1C00
1C00
1C00
1C00
1C00
1C00
1C00
1C00
1C00
1C00
1C00
1C00
1C00
1C00
1C80
3F00
0E00
0400
ENDCHAR
STARTCHAR 0032
ENCODING 50
SWIDTH 444 0
DWIDTH 16 0
BBX 14 22 0 0
BITMAP
0200
0700
0FC0
1F60
3E38
783C
303C
003C
0038
0078
0078
00F0
01E0
03C0
0700
0E00
1800
3000
67F8
7FFC
FFF8
C030
ENDCHAR
STARTCHAR 0033
ENCODING 51
SWIDTH 444 0
DWIDTH 16 0
BBX 14 21 0 1
BITMAP
0700
0FC0
3E30
3C38
1838
0038
0038
0070
01E0
0FC0
01F0
0078
0038
001C
201C
701C
F81C
7C18
3F30
0FA0
0740
ENDCHAR
STARTCHAR 0034
ENCODING 52
SWIDTH 444 0
DWIDTH 16 0
BBX 14 22 1 0
BITMAP
0080
00C0
01E0
03E0
06E0
04E0
08E0
10E0
20E0
40E0
40E0
80E0
FFFC
FFFC
FFFC
00E0
00E0
00E0
00E0
01F8
00F0
0020
ENDCHAR
STARTCHAR 0035
ENCODING 53
SWIDTH 444 0
DWIDTH 16 0
BBX 14 21 1 0
BITMAP
1FF0
1FF0
3FE0
2000
2000
2000
20C0
23F0
4FF8
58F8
607C
403C
001C
001C
001C
401C
7018
FC30
3E20
1FC0
0700
ENDCHAR
STARTCHAR 0036
ENCODING 54
SWIDTH 444 0
DWIDTH 16 0
BBX 14 22 1 0
BITMAP
0100
03C0
07E0
0FF8
18F0
3020
3000
7000
6070
61F8
E3F8
EC7C
F03C
E01C
F01C
701C
7818
7818
3E30
1FE0
0FC0
0300
ENDCHAR
STARTCHAR 0037
ENCODING 55
SWIDTH 388 0
DWIDTH 14 0
BBX 13 21 1 0
BITMAP
3FF8
3FF0
7FF0
6020
8040
80C0
0080
0180
0300
0300
0700
0600
0E00
0E00
1C00
1C00
1C00
3C00
3C00
3C00
2000
ENDCHAR
STARTCHAR 0038
ENCODING 56
SWIDTH 444 0
DWIDTH 16 0
BBX 14 21 1 1
BITMAP
07C0
0FF0
1FF8
2078
2038
6018
7030
7C20
7FC0
3FF0
0FF8
11FC
203C
401C
C00C
C008
E008
F830
7FE0
3FC0
0F00
ENDCHAR
STARTCHAR 0039
ENCODING 57
SWIDTH 444 0
DWIDTH 16 0
BBX 14 22 1 0
BITMAP
0200
0780
0FE0
1FF0
31F0
6078
6078
E03C
E03C
E01C
F03C
F8DC
7F18
7E18
1838
0030
0030
1820
3C40
7F80
1F00
0600
ENDCHAR
STARTCHAR 003A
ENCODING 58
SWIDTH 250 0
DWIDTH 9 0
BBX 5 16 1 0
BITMAP
20
70
F0
F8
70
20
00
00
00
00
00
20
70
F8
70
20
ENDCHAR
STARTCHAR 003B
ENCODING 59
SWIDTH 250 0
DWIDTH 9 0
BBX 5 19 2 -3
BITMAP
20
70
F0
F8
70
20
00
00
00
00
00
20
70
F8
70
70
60
40
80
ENDCHAR
STARTCHAR 003C
ENCODING 60
SWIDTH 805 0
DWIDTH 29 0
BBX 19 19 6 1
BITMAP
000020
0000E0
0007E0
001F80
007E00
03F800
0FC000
3F0000
FC0000
E00000
FC0000
3F0000
0FC000
01F800
007E00
001F80
0003E0
0000E0
000020
ENDCHAR
STARTCHAR 003D
ENCODING 61
SWIDTH 805 0
DWIDTH 29 0
BBX 20 9 5 6
BITMAP
FFFFF0
FFFFF0
FFFFF0
000000
000000
000000
FFFFF0
FFFFF0
FFFFF0
ENDCHAR
STARTCHAR 003E
ENCODING 62
SWIDTH 805 0
DWIDTH 29 0
BBX 19 19 6 1
BITMAP
800000
E00000
FC0000
3F0000
0FC000
03F000
007E00
001F80
0007E0
0000E0
0007E0
001F80
007E00
03F000
0FC000
3F0000
FC0000
E00000
800000
ENDCHAR
STARTCHAR 003F
ENCODING 63
SWIDTH 333 0
DWIDTH 12 0
BBX 8 22 1 0
BITMAP
78
FE
CE
07
07
07
07
06
0E
0C
08
18
18
10
10
10
00
10
38
7C
38
10
ENDCHAR
STARTCHAR 0040
ENCODING 64
SWIDTH 944 0
DWIDTH 34 0
BBX 29 29 3 -4
BITMAP
000FF000
00701E00
01C00F80
030003C0
060000E0
0C000060
18000030
30000010
300FCE18
60182C08
60383C08
60703C08
C0F03C08
C0E03808
C1E03808
C1C03810
C1C07010
C1C07020
C1C07020
C1C0F040
60E13180
60623300
303C1C00
38000000
1C000000
0E0000C0
07000300
03E00C00
00FFF000
ENDCHAR
STARTCHAR 0041
ENCODING 65
SWIDTH 583 0
DWIDTH 21 0
BBX 20 22 0 1
BITMAP
01FC10
07FE60
1FFF40
3C0FC0
300FC0
61FBC0
4373C0
4423C0
4043C0
4083C0
4183C0
2103C0
13FFC0
0FFFC0
0FFFC0
0803C0
1003C0
3C03C0
7F07C0
5FEBF0
C3F1E0
40C080
ENDCHAR
STARTCHAR 0042
ENCODING 66
SWIDTH 694 0
DWIDTH 25 0
BBX 22 26 1 -4
BITMAP
3FF0F0
DFC778
018838
03981C
071818
073818
0F3A30
0F3A70
3F3AE0
7F3BB0
FF3A1C
0F3A1C
073BFC
073A1C
1F321C
3F33FC
26621C
06C21C
0DFE1C
0BFFE0
1FFF00
300C00
400000
400000
C00000
400000
ENDCHAR
STARTCHAR 0043
ENCODING 67
SWIDTH 583 0
DWIDTH 21 0
BBX 20 22 1 0
BITMAP
001800
003F80
0C7FC0
19A780
332000
372000
672000
672000
E72000
E72000
E72000
E72000
E72000
F62000
F42000
7C2000
7C2010
3E2060
3FA1C0
1FFF80
07FF00
01FC00
ENDCHAR
STARTCHAR 0044
ENCODING 68
SWIDTH 722 0
DWIDTH 26 0
BBX 25 25 0 -1
BITMAP
40000000
7FFFF000
7FFFF800
3FFFFC00
00343E00
00D40E00
01940700
01940700
03940700
03940300
07960780
0795FB80
07940380
3F940380
7F940380
FF95FB80
0F160780
0F240380
0E640380
0E7FC380
0DFFFF00
13FFFC00
2E00F800
10001000
60000000
ENDCHAR
STARTCHAR 0045
ENCODING 69
SWIDTH 583 0
DWIDTH 21 0
BBX 20 22 1 0
BITMAP
001C00
003FE0
08FFC0
192780
332100
372200
6727C0
672FC0
E73F80
E72000
E72000
E72000
E72000
F62000
F42000
782000
7C2010
3E2060
3FA1C0
1FFF80
07FF00
01FC00
ENDCHAR
STARTCHAR 0046
ENCODING 70
SWIDTH 638 0
DWIDTH 23 0
BBX 28 27 -4 -3
BITMAP
00001810
00003FF0
0000FFE0
001FEF80
001CE000
001CE000
001CE000
01FCFF00
03FCFF00
07FCFF00
0C1CE000
081CE000
001CE000
001CE000
001CE000
001CE000
001CE000
001CE000
001CE000
001CE000
001DC000
0019C000
001B8000
3C170000
7F2C0000
FFF00000
9F000000
ENDCHAR
STARTCHAR 0047
ENCODING 71
SWIDTH 638 0
DWIDTH 23 0
BBX 21 22 1 0
BITMAP
001800
007FE0
00BFC0
018F80
078300
0F8700
1B8FC0
339FF0
23BFF0
63E0F8
63A078
E3A038
E3A038
E3B8F8
F3A738
F32030
FA3FA0
7C2060
7C2040
3E2180
1FA600
07F800
ENDCHAR
STARTCHAR 0048
ENCODING 72
SWIDTH 694 0
DWIDTH 25 0
BBX 23 26 1 -4
BITMAP
3FF080
DFC700
018C00
039810
073838
0738FC
0F393C
0F3E1E
3F380E
7F380E
FF3FFE
0F380E
0F380E
07380E
1F3FFE
3F300E
2E600C
06C09C
0DFF98
0BFF38
1FFE70
300CC0
400180
400300
C003C0
4001C0
ENDCHAR
STARTCHAR 0049
ENCODING 73
SWIDTH 472 0
DWIDTH 17 0
BBX 16 22 -1 0
BITMAP
1FF3
2766
40CE
01DE
019E
039E
039E
039E
0F9E
1F9E
3F9E
03DF
01CF
01CF
01CF
01CF
01CF
038E
3F0E
7E0E
FF0C
81F0
ENDCHAR
STARTCHAR 004A
ENCODING 74
SWIDTH 500 0
DWIDTH 18 0
BBX 20 26 -2 -4
BITMAP
07FFF0
0FFFE0
30FEC0
2805C0
3C1980
1C3980
003380
007380
007380
07F380
01F380
00F380
00F380
027380
07F380
01F380
007380
007380
003300
003300
003600
002400
3FEC00
7FD800
7FE000
878000
ENDCHAR
STARTCHAR 004B
ENCODING 75
SWIDTH 666 0
DWIDTH 24 0
BBX 24 22 0 0
BITMAP
3FE400
7FE800
C0C840
81D0E0
0391F0
0393F8
0394F8
1B9870
3F9040
079080
039100
039780
039FC0
3F97E0
2F91E0
07A0F0
0720F8
0E4078
0CF8FD
1BFF3E
3FFE1C
701C08
ENDCHAR
STARTCHAR 004C
ENCODING 76
SWIDTH 555 0
DWIDTH 20 0
BBX 19 22 0 1
BITMAP
3FE700
7FCC00
819800
019800
03B800
03B800
03B800
03B800
03BC00
1F9C00
0F9800
039800
039800
1FB800
07B000
033000
036000
024400
06FF80
07FFE0
0FFFC0
300180
ENDCHAR
STARTCHAR 004D
ENCODING 77
SWIDTH 833 0
DWIDTH 30 0
BBX 30 25 -1 -4
BITMAP
000181C0
0007C7E8
0019DCF0
0061E470
00A1C470
01A1C470
03A1C470
03A1C470
03A1C470
07AFFF70
0FBFFE70
1FBFFC70
3FA1C470
2FA1C470
03A1C470
01A1C470
01A1C470
01A1C670
0123C470
0121F87C
0660E038
3FC04030
7FC00000
FF800000
80000000
ENDCHAR
STARTCHAR 004E
ENCODING 78
SWIDTH 694 0
DWIDTH 25 0
BBX 27 25 -2 -3
BITMAP
00006000
0001F800
0007FE00
001C3F00
00741F00
00740F80
00740780
0FF40780
01F7BF80
00F44380
00740780
07F40700
01F7F700
00F40F00
00740E00
03F40C00
00F41C00
00741800
00343720
00343FC0
00287F80
1FD87F80
7FF0C000
DFE08000
01800000
ENDCHAR
STARTCHAR 004F
ENCODING 79
SWIDTH 666 0
DWIDTH 24 0
BBX 22 22 1 0
BITMAP
001C00
003F80
00FFE0
01A3F0
07A0F8
1BA078
33A03C
73B07C
E3AF9C
E3A01C
E3A01C
E3A71C
E3B8DC
F32038
F32030
F22070
FC20E0
7C21C0
3E2300
3FFE00
0FFC00
07E000
ENDCHAR
STARTCHAR 0050
ENCODING 80
SWIDTH 666 0
DWIDTH 24 0
BBX 22 26 0 -4
BITMAP
1F1180
2397E0
01DBF0
01F0F8
01D038
01D03C
03D01C
05D01C
19D83C
79D7DC
3FD01C
1FD01C
0FD39C
07DC7C
03D01C
03D01C
01D01C
03DE18
0FDFD0
3FDFE0
7FDFC0
C1D000
01D000
01D000
01F000
01F000
ENDCHAR
STARTCHAR 0051
ENCODING 81
SWIDTH 694 0
DWIDTH 25 0
BBX 23 23 1 -2
BITMAP
001C00
003F80
00FFE0
01A3F0
07A0F8
1BA078
33A03C
73B07C
E3AF9C
E3A01C
E3A01C
E3A71C
E3B8DC
F32038
F32038
F22070
FC20E0
7C20C0
3E23F0
3FFFF8
0FFCFE
07E03C
000018
ENDCHAR
STARTCHAR 0052
ENCODING 82
SWIDTH 694 0
DWIDTH 25 0
BBX 25 22 0 0
BITMAP
1F018000
03878000
01DBC000
01E9E000
01C8F000
01C87800
03C87800
0DC87000
19C8C000
3DC98000
3FCFC000
0FCFE000
07C9F000
03C8F800
03C87800
01C83C00
01C83C00
03F83C00
0FFE1E00
3FFF1F80
7FFE0E00
C00C0400
ENDCHAR
STARTCHAR 0053
ENCODING 83
SWIDTH 694 0
DWIDTH 25 0
BBX 24 22 0 1
BITMAP
007080
00FF80
031F00
040700
0C0200
0E0200
0FFFE0
3FFFF8
27FFFE
61F03E
70100F
781787
3FFFE7
1FFFE7
07FFE7
1F8046
7FF88E
FFFF1C
C1FFF8
C03FF0
40CFC0
430300
ENDCHAR
STARTCHAR 0054
ENCODING 84
SWIDTH 611 0
DWIDTH 22 0
BBX 21 22 1 1
BITMAP
0FF808
3FFFF0
7FFFF0
C2FFE0
84E200
0CE200
18E200
38E200
30E200
70E200
70E200
70E200
70E200
70E200
78C200
7CC210
3D8210
3F0220
1F82E0
0FFFC0
07FF80
00FE00
ENDCHAR
STARTCHAR 0055
ENCODING 85
SWIDTH 750 0
DWIDTH 27 0
BBX 25 22 0 1
BITMAP
1FFC0900
3FF43F00
60545E00
41B48E00
83340E00
06740E00
0C740E00
0C740E00
1877FE00
18740E00
38740E00
3875EE00
38761E00
38740E00
3C640E00
3C440E00
1EC40E00
1F041E00
0FC47E00
07FFCE80
03FF0700
00FC0600
ENDCHAR
STARTCHAR 0056
ENCODING 86
SWIDTH 611 0
DWIDTH 22 0
BBX 20 22 0 1
BITMAP
3C00C0
7E01E0
FF07E0
8F19E0
07E1F0
0780F0
0380F0
03C0F0
03FFF0
03C0F0
1F80F0
3F80E0
0F80E0
07FFC0
0381C0
030180
030300
020300
062600
05FC00
07F800
0E7000
ENDCHAR
STARTCHAR 0057
ENCODING 87
SWIDTH 1055 0
DWIDTH 38 0
BBX 36 22 1 0
BITMAP
3FF8FFC110
7FE9FF47E0
C14B074BC0
82CA0B41C0
04C81341C0
0DC83741C0
19C86741C0
39C8E741C0
31C8C77FC0
31C8C741C0
71C9C741C0
71C9C741C0
71C9C77FC0
71C9C741C0
7189C641C0
7989E641C0
7B09EC41C0
3E09F043C0
3F0BF84FC0
1FFE7FF9D0
0FF83FF0E0
03F00F8040
ENDCHAR
STARTCHAR 0058
ENCODING 88
SWIDTH 583 0
DWIDTH 21 0
BBX 19 22 0 0
BITMAP
3C0300
7E0380
8F07E0
0785C0
078840
03C800
03D000
01F000
01F000
0FFF80
1FFF80
1FFF80
007800
00F800
00BC00
011C00
011E00
720E00
7E0F00
FC07C0
1C0780
080300
ENDCHAR
STARTCHAR 0059
ENCODING 89
SWIDTH 666 0
DWIDTH 24 0
BBX 22 27 0 -4
BITMAP
3E07C0
079FF0
03F0F8
039078
03907C
03903C
3F903C
0F9CFC
07933C
03903C
03903C
3F97BC
0F987C
079038
039078
039070
0390E0
0391C0
3FFF00
600000
C00000
800000
801F00
80FF80
41F180
7FC180
1F0000
ENDCHAR
STARTCHAR 005A
ENCODING 90
SWIDTH 527 0
DWIDTH 19 0
BBX 18 22 0 0
BITMAP
0E0180
1FFF80
3FF300
000600
000E00
001C00
003C00
007800
0FFF00
0FFF00
01F000
1FFE00
3FFE00
03C000
078000
070000
0E0000
1C0000
19FE40
3FFF80
7FFF00
C00600
ENDCHAR
STARTCHAR 005B
ENCODING 91
SWIDTH 333 0
DWIDTH 12 0
BBX 6 31 4 -4
BITMAP
FC
E0
E0
E0
E0
E0
E0
E0
E0
E0
E0
E0
E0
E0
E0
E0
E0
E0
E0
E0
E0
E0
E0
E0
E0
E0
E0
E0
E0
E0
FC
ENDCHAR
STARTCHAR 005C
ENCODING 92
SWIDTH 305 0
DWIDTH 11 0
BBX 10 25 0 -4
BITMAP
C000
C000
6000
6000
6000
3000
3000
3000
1800
1800
1800
0C00
0C00
0C00
0600
0600
0600
0200
0300
0300
0100
0180
0180
0080
00C0
ENDCHAR
STARTCHAR 005D
ENCODING 93
SWIDTH 333 0
DWIDTH 12 0
BBX 6 31 2 -4
BITMAP
FC
1C
1C
1C
1C
1C
1C
1C
1C
1C
1C
1C
1C
1C
1C
1C
1C
1C
1C
1C
1C
1C
1C
1C
1C
1C
1C
1C
1C
1C
FC
ENDCHAR
STARTCHAR 005E
ENCODING 94
SWIDTH 972 0
DWIDTH 35 0
BBX 20 10 7 16
BITMAP
00F000
01F800
03FC00
079E00
0F0F00
1E0780
1C0380
3000C0
600060
C00030
ENDCHAR
STARTCHAR 005F
ENCODING 95
SWIDTH 472 0
DWIDTH 17 0
BBX 17 3 0 -9
BITMAP
FFFF80
FFFF80
FFFF80
ENDCHAR
STARTCHAR 0060
ENCODING 96
SWIDTH 472 0
DWIDTH 17 0
BBX 7 5 5 19
BITMAP
E0
70
38
1C
0E
ENDCHAR
STARTCHAR 0061
ENCODING 97
SWIDTH 361 0
DWIDTH 13 0
BBX 12 17 1 0
BITMAP
0400
1F80
7FE0
23C0
21C0
21C0
31C0
2DC0
63C0
E1C0
C1C0
E1C0
E1C0
F3C0
F5F0
79E0
20C0
ENDCHAR
STARTCHAR 0062
ENCODING 98
SWIDTH 388 0
DWIDTH 14 0
BBX 12 22 0 0
BITMAP
4400
3800
3800
3800
3800
F8E0
F9E0
3BF0
3C70
3870
3870
3870
3870
3870
3870
3870
3870
3870
7E70
1FE0
0780
0100
ENDCHAR
STARTCHAR 0063
ENCODING 99
SWIDTH 277 0
DWIDTH 10 0
BBX 8 17 1 0
BITMAP
0C
1E
3F
77
72
70
70
70
70
70
70
70
70
78
FF
1E
08
ENDCHAR
STARTCHAR 0064
ENCODING 100
SWIDTH 361 0
DWIDTH 13 0
BBX 11 21 1 1
BITMAP
C000
E000
F000
7C00
3E00
1F80
3FE0
73E0
70E0
70E0
70E0
70E0
70E0
70E0
70E0
70E0
70E0
78E0
7FE0
0F00
0600
ENDCHAR
STARTCHAR 0065
ENCODING 101
SWIDTH 305 0
DWIDTH 11 0
BBX 9 17 2 0
BITMAP
0800
3C00
7E00
FF00
EF80
E700
E200
EC00
F000
E000
E000
E000
E000
E100
FA00
7C00
1000
ENDCHAR
STARTCHAR 0066
ENCODING 102
SWIDTH 277 0
DWIDTH 10 0
BBX 9 22 1 0
BITMAP
0780
1F00
3800
3800
3800
FE00
FE00
3800
3800
3800
3800
3800
3800
3800
3800
3800
3800
3800
7C00
3F00
0E00
0400
ENDCHAR
STARTCHAR 0067
ENCODING 103
SWIDTH 416 0
DWIDTH 15 0
BBX 13 21 2 -4
BITMAP
0C00
3F08
FFF8
E7F8
E1D8
E1C0
E1C0
E1C0
E1C0
E1C0
E1C0
E1C0
E1C0
F3C0
7DE0
39E0
10F0
3070
6070
FFE0
FF80
ENDCHAR
STARTCHAR 0068
ENCODING 104
SWIDTH 388 0
DWIDTH 14 0
BBX 12 26 0 -4
BITMAP
4400
3800
3800
3800
3800
F8E0
F9E0
3BF0
3C70
3870
3870
3870
3870
3870
3870
3870
3870
3870
3870
7C70
3870
1060
00C0
0180
0600
1800
ENDCHAR
STARTCHAR 0069
ENCODING 105
SWIDTH 194 0
DWIDTH 7 0
BBX 6 22 1 0
BITMAP
18
18
10
00
00
20
70
F8
70
70
70
70
70
70
70
70
70
70
70
7C
78
30
ENDCHAR
STARTCHAR 006A
ENCODING 106
SWIDTH 222 0
DWIDTH 8 0
BBX 6 26 1 -4
BITMAP
0C
08
08
00
00
10
78
FC
3C
38
78
70
70
70
70
70
70
78
38
38
38
38
30
30
60
80
ENDCHAR
STARTCHAR 006B
ENCODING 107
SWIDTH 388 0
DWIDTH 14 0
BBX 14 22 0 0
BITMAP
4C00
3800
3800
3800
3840
F8E0
F9E0
3BF0
3E70
3C30
3860
38C0
39E0
3BE0
3EF0
38F0
3870
3870
38F8
7F7C
0E38
0430
ENDCHAR
STARTCHAR 006C
ENCODING 108
SWIDTH 277 0
DWIDTH 10 0
BBX 8 22 2 0
BITMAP
88
70
70
70
70
70
70
70
70
70
70
70
70
70
70
70
70
70
78
7F
1C
08
ENDCHAR
STARTCHAR 006D
ENCODING 109
SWIDTH 583 0
DWIDTH 21 0
BBX 20 17 1 0
BITMAP
208100
61C380
F3E7A0
75EBC0
78F1C0
70E1C0
70E1C0
70E1C0
70E1C0
70E1C0
70E1C0
70E1C0
70E1C0
70E1C0
F9F1F0
70E0E0
2040C0
ENDCHAR
STARTCHAR 006E
ENCODING 110
SWIDTH 388 0
DWIDTH 14 0
BBX 13 17 1 0
BITMAP
2080
61C0
F3D0
75E0
78E0
70E0
70E0
70E0
70E0
70E0
70E0
70E0
70E0
70E0
F8F8
7070
2060
ENDCHAR
STARTCHAR 006F
ENCODING 111
SWIDTH 361 0
DWIDTH 13 0
BBX 10 17 2 0
BITMAP
0800
1E00
7FC0
EFC0
E3C0
E1C0
E1C0
E1C0
E1C0
E1C0
E1C0
E1C0
E1C0
F1C0
FF80
1E00
0C00
ENDCHAR
STARTCHAR 0070
ENCODING 112
SWIDTH 388 0
DWIDTH 14 0
BBX 12 21 0 -4
BITMAP
30C0
71E0
FBE0
BEF0
3C70
3870
3870
3870
3870
3870
3870
3870
3870
FE70
FFE0
3F80
3900
3800
3800
3C00
4C00
ENDCHAR
STARTCHAR 0071
ENCODING 113
SWIDTH 333 0
DWIDTH 12 0
BBX 11 21 1 -4
BITMAP
0800
1E00
FF80
FFE0
E7C0
E1C0
E1C0
E1C0
E1C0
E1C0
E1C0
E1C0
E1C0
E3C0
FDC0
71C0
61C0
01C0
01C0
03C0
0320
ENDCHAR
STARTCHAR 0072
ENCODING 114
SWIDTH 305 0
DWIDTH 11 0
BBX 9 17 1 0
BITMAP
2100
7380
F780
7B80
7100
7000
7000
7000
7000
7000
7000
7000
7000
7000
7E00
1C00
0800
ENDCHAR
STARTCHAR 0073
ENCODING 115
SWIDTH 361 0
DWIDTH 13 0
BBX 13 19 0 1
BITMAP
0018
0018
0408
1FB0
3FE0
77E0
7040
7080
71C0
79E0
7FF0
1C70
0870
1870
1070
2E70
7FF0
7FC0
C300
ENDCHAR
STARTCHAR 0074
ENCODING 116
SWIDTH 250 0
DWIDTH 9 0
BBX 7 20 1 1
BITMAP
10
30
70
FE
FE
70
70
70
70
70
70
70
70
70
70
70
F0
7E
1C
08
ENDCHAR
STARTCHAR 0075
ENCODING 117
SWIDTH 388 0
DWIDTH 14 0
BBX 13 17 1 0
BITMAP
2040
70E0
F9F0
70E0
70E0
70E0
70E0
70E0
70E0
70E0
70E0
70E0
70E0
71E0
7EF8
38F0
3060
ENDCHAR
STARTCHAR 0076
ENCODING 118
SWIDTH 361 0
DWIDTH 13 0
BBX 11 21 1 1
BITMAP
2000
4000
C000
C000
E080
E1C0
F3E0
75E0
78E0
70E0
70E0
70E0
70E0
70E0
70E0
70E0
70E0
78E0
7FC0
0F00
0600
ENDCHAR
STARTCHAR 0077
ENCODING 119
SWIDTH 555 0
DWIDTH 20 0
BBX 17 21 1 1
BITMAP
200000
400000
C00000
C00000
E10200
E38700
F7CF80
7FD780
79E380
71C380
71C380
71C380
71C380
71C380
71C380
71C380
71C380
79C380
7FFF00
1FFC00
041800
ENDCHAR
STARTCHAR 0078
ENCODING 120
SWIDTH 388 0
DWIDTH 14 0
BBX 13 17 0 0
BITMAP
1040
3870
F8F0
3CF0
1CA0
0F00
0F00
0700
0700
0780
0780
09C0
09C0
69E0
F0E8
7070
2020
ENDCHAR
STARTCHAR 0079
ENCODING 121
SWIDTH 388 0
DWIDTH 14 0
BBX 13 21 0 -4
BITMAP
0800
1870
3CF0
5D78
1E78
1C38
1C38
1C38
1C38
1C30
1C60
1C60
1C80
1D00
1E00
3800
6000
4000
8000
8000
4600
ENDCHAR
STARTCHAR 007A
ENCODING 122
SWIDTH 277 0
DWIDTH 10 0
BBX 8 21 1 -4
BITMAP
10
38
7E
9E
0E
04
08
10
3E
7F
0F
07
07
06
0E
1C
30
60
80
80
40
ENDCHAR
STARTCHAR 007B
ENCODING 123
SWIDTH 472 0
DWIDTH 17 0
BBX 11 30 3 -4
BITMAP
00E0
0380
0700
0700
0700
0700
0700
0700
0700
0700
0700
0700
0E00
0E00
F800
F800
1E00
0E00
0700
0700
0700
0700
0700
0700
0700
0700
0700
0700
0380
00E0
ENDCHAR
STARTCHAR 007C
ENCODING 124
SWIDTH 472 0
DWIDTH 17 0
BBX 3 35 7 -9
BITMAP
E0
E0
E0
E0
E0
E0
E0
E0
E0
E0
E0
E0
E0
E0
E0
E0
E0
E0
E0
E0
E0
E0
E0
E0
E0
E0
E0
E0
E0
E0
E0
E0
E0
E0
E0
ENDCHAR
STARTCHAR 007D
ENCODING 125
SWIDTH 472 0
DWIDTH 17 0
BBX 11 30 3 -4
BITMAP
F000
1C00
0C00
0E00
0E00
0E00
0E00
0E00
0E00
0E00
0E00
0E00
0600
0700
01E0
01E0
0700
0600
0E00
0E00
0E00
0E00
0E00
0E00
0E00
0E00
0E00
0C00
1C00
F000
ENDCHAR
STARTCHAR 007E
ENCODING 126
SWIDTH 805 0
DWIDTH 29 0
BBX 22 5 3 8
BITMAP
0F8004
3FE00C
FFFC3C
F07FF8
C00FE0
ENDCHAR
STARTCHAR 00A0
ENCODING 160
SWIDTH 444 0
DWIDTH 16 0
BBX 0 0 0 0
BITMAP
ENDCHAR
STARTCHAR 00A1
ENCODING 161
SWIDTH 222 0
DWIDTH 8 0
BBX 5 22 2 0
BITMAP
20
70
F8
70
20
00
20
20
20
20
20
60
60
70
70
70
70
F0
F8
F0
70
20
ENDCHAR
STARTCHAR 00A2
ENCODING 162
SWIDTH 444 0
DWIDTH 16 0
BBX 8 22 2 0
BITMAP
0C
0C
0C
3E
FF
EF
EE
EC
EC
EC
EC
EC
EC
EC
EC
FD
FE
3C
0C
0C
0C
0C
ENDCHAR
STARTCHAR 00A3
ENCODING 163
SWIDTH 444 0
DWIDTH 16 0
BBX 13 21 2 1
BITMAP
03C0
07F0
0FF0
08F0
1800
3800
3800
3800
3C00
3C00
FFC0
3C00
FFC0
1C00
0C00
0C00
0800
09E0
1FF8
7FF0
E030
ENDCHAR
STARTCHAR 00A4
ENCODING 164
SWIDTH 583 0
DWIDTH 21 0
BBX 18 18 2 6
BITMAP
400080
E001C0
61E180
37F300
3FFF00
1E1E00
180600
380300
300300
300300
300300
300700
180600
1E1E00
3FFF00
73F380
E001C0
400080
ENDCHAR
STARTCHAR 00A5
ENCODING 165
SWIDTH 444 0
DWIDTH 16 0
BBX 15 22 -1 0
BITMAP
1000
7C1C
FE3C
0EDE
0F0E
070E
070E
070E
078E
038C
039C
0398
01F0
1FFE
1FFE
01C0
01C0
01C0
01C0
03F0
00E0
0040
ENDCHAR
STARTCHAR 00A6
ENCODING 166
SWIDTH 472 0
DWIDTH 17 0
BBX 3 31 7 -7
BITMAP
E0
E0
E0
E0
E0
E0
E0
E0
E0
E0
E0
E0
E0
00
00
00
00
00
E0
E0
E0
E0
E0
E0
E0
E0
E0
E0
E0
E0
E0
ENDCHAR
STARTCHAR 00A7
ENCODING 167
SWIDTH 444 0
DWIDTH 16 0
BBX 13 26 1 -4
BITMAP
07C0
1FF8
20F0
2000
6000
7000
7800
7F00
3FE0
2FF8
21F8
4038
6018
E010
7810
7F20
3FF0
07F0
00F0
0078
0038
0030
6030
FC20
FFC0
0F80
ENDCHAR
STARTCHAR 00A8
ENCODING 168
SWIDTH 472 0
DWIDTH 17 0
BBX 10 3 4 20
BITMAP
6180
F3C0
6180
ENDCHAR
STARTCHAR 00A9
ENCODING 169
SWIDTH 805 0
DWIDTH 29 0
BBX 25 24 2 0
BITMAP
007F0000
03FFC000
0780F000
0E003800
18001C00
307C4E00
70C3C700
6180C300
6380C300
C3004180
C7000180
C7000180
C7000180
C7000180
C7000180
63804300
6380C300
71C18700
30FF0E00
187C1C00
0C003800
0700F000
01FFC000
007F0000
ENDCHAR
STARTCHAR 00AA
ENCODING 170
SWIDTH 277 0
DWIDTH 10 0
BBX 8 11 1 12
BITMAP
1C
FF
8E
4E
AE
9E
8E
8E
8E
FE
CE
ENDCHAR
STARTCHAR 00AB
ENCODING 171
SWIDTH 444 0
DWIDTH 16 0
BBX 12 12 2 3
BITMAP
0820
1C70
18E0
39C0
71C0
E380
6380
71C0
38E0
1CE0
1C70
0800
ENDCHAR
STARTCHAR 00AC
ENCODING 172
SWIDTH 805 0
DWIDTH 29 0
BBX 21 9 4 6
BITMAP
FFFFF8
FFFFF8
FFFFF8
000038
000038
000038
000038
000038
000038
ENDCHAR
STARTCHAR 00AD
ENCODING 173
SWIDTH 305 0
DWIDTH 11 0
BBX 8 5 2 7
BITMAP
01
7F
7E
FE
80
ENDCHAR
STARTCHAR 00AE
ENCODING 174
SWIDTH 805 0
DWIDTH 29 0
BBX 25 24 2 0
BITMAP
007F0000
03FFE000
0781F000
0E003800
18001C00
33FE0E00
70E38700
60E1C300
60E1C300
C0E1C180
C0E30180
C0FC0180
C0E60180
C0E30180
C0E38180
60E39300
60E39300
73F9E600
38000E00
1C001C00
0E003800
0780E000
03FF8000
007E0000
ENDCHAR
STARTCHAR 00AF
ENCODING 175
SWIDTH 472 0
DWIDTH 17 0
BBX 9 3 4 19
BITMAP
FF80
FF80
FF80
ENDCHAR
STARTCHAR 00B0
ENCODING 176
SWIDTH 333 0
DWIDTH 12 0
BBX 10 10 1 15
BITMAP
1E00
7F80
6180
C0C0
C0C0
C0C0
C0C0
6180
7F80
1E00
ENDCHAR
STARTCHAR 00B1
ENCODING 177
SWIDTH 805 0
DWIDTH 29 0
BBX 21 21 4 0
BITMAP
007000
007000
007000
007000
007000
007000
FFFFF8
FFFFF8
FFFFF8
007000
007000
007000
007000
007000
007000
000000
000000
000000
FFFFF8
FFFFF8
FFFFF8
ENDCHAR
STARTCHAR 00B2
ENCODING 178
SWIDTH 305 0
DWIDTH 11 0
BBX 9 13 0 9
BITMAP
1C00
3A00
F380
4180
0380
0300
0600
0C00
1000
2000
5F00
FF00
8100
ENDCHAR
STARTCHAR 00B3
ENCODING 179
SWIDTH 305 0
DWIDTH 11 0
BBX 10 13 0 9
BITMAP
1C00
7B80
2380
0380
0300
1E00
0700
01C0
41C0
E1C0
7180
3B00
0C00
ENDCHAR
STARTCHAR 00B4
ENCODING 180
SWIDTH 472 0
DWIDTH 17 0
BBX 7 5 6 19
BITMAP
0E
1C
38
70
E0
ENDCHAR
STARTCHAR 00B5
ENCODING 181
SWIDTH 555 0
DWIDTH 20 0
BBX 20 22 -1 -7
BITMAP
060380
0E0300
0E0700
0E0700
0C0700
0C0700
1C0E00
1C0E00
1C0E00
1C0E10
1C1E10
3C3E30
37F7E0
37E7C0
33C380
700000
700000
600000
E00000
E00000
E00000
C00000
ENDCHAR
STARTCHAR 00B6
ENCODING 182
SWIDTH 472 0
DWIDTH 17 0
BBX 15 26 1 0
BITMAP
0FFE
3FFE
7F18
7F18
FF18
FF18
FF18
FF18
FF18
7F18
3F18
1F18
0318
0318
0318
0318
0318
0318
0318
0318
0318
0318
0318
0318
0318
0318
ENDCHAR
STARTCHAR 00B7
ENCODING 183
SWIDTH 222 0
DWIDTH 8 0
BBX 4 4 2 9
BITMAP
70
F0
F0
70
ENDCHAR
STARTCHAR 00B8
ENCODING 184
SWIDTH 472 0
DWIDTH 17 0
BBX 7 9 5 -9
BITMAP
20
20
20
38
1E
06
06
FE
7C
ENDCHAR
STARTCHAR 00B9
ENCODING 185
SWIDTH 194 0
DWIDTH 7 0
BBX 6 13 0 9
BITMAP
60
F0
30
30
30
30
30
30
30
30
34
38
10
ENDCHAR
STARTCHAR 00BA
ENCODING 186
SWIDTH 277 0
DWIDTH 10 0
BBX 9 11 0 12
BITMAP
0C00
7F80
7380
7380
7380
7380
7380
7380
7380
FF80
1C00
ENDCHAR
STARTCHAR 00BB
ENCODING 187
SWIDTH 444 0
DWIDTH 16 0
BBX 12 12 2 3
BITMAP
4100
E380
7180
39C0
38E0
1C70
1C70
38E0
71C0
7380
E380
0100
ENDCHAR
STARTCHAR 00BC
ENCODING 188
SWIDTH 638 0
DWIDTH 23 0
BBX 22 22 0 0
BITMAP
000040
6000C0
B00180
300300
300200
300600
300C00
301800
301000
303000
306020
38C070
1080B0
018130
030230
020430
0407FC
0C07FC
180030
100030
20007C
600010
ENDCHAR
STARTCHAR 00BD
ENCODING 189
SWIDTH 638 0
DWIDTH 23 0
BBX 22 22 0 0
BITMAP
000060
6000C0
B00180
300100
300300
300600
300C00
300800
301800
303000
3060C0
3841F0
10C79C
01821C
030018
020018
040030
0C00E0
180180
100200
2007FC
600638
ENDCHAR
STARTCHAR 00BE
ENCODING 190
SWIDTH 722 0
DWIDTH 26 0
BBX 25 22 0 0
BITMAP
00000800
1C001800
73003000
23002000
03006000
0600C000
1C018000
03010000
01830000
41860000
F1840400
3B080E00
1C181600
00302600
00204600
00608600
00C0FF80
00807F80
01000600
03000600
06000F80
04000200
ENDCHAR
STARTCHAR 00BF
ENCODING 191
SWIDTH 333 0
DWIDTH 12 0
BBX 9 22 1 0
BITMAP
0C00
1E00
3F00
0C00
0000
0000
0800
0800
0800
1800
1800
1000
3000
7000
6000
E000
E000
E000
F080
7F00
7F00
1E00
ENDCHAR
STARTCHAR 00C0
ENCODING 192
SWIDTH 583 0
DWIDTH 21 0
BBX 20 31 0 1
BITMAP
00C000
00E000
00E000
007000
003800
001C00
000000
000000
000000
01FC10
07FE60
1FFF40
3C0FC0
300FC0
61FBC0
4373C0
4423C0
4043C0
4083C0
4183C0
2103C0
13FFC0
0FFFC0
0FFFC0
0803C0
1003C0
3C03C0
7F07C0
5FEBF0
C3F1E0
40C080
ENDCHAR
STARTCHAR 00C1
ENCODING 193
SWIDTH 583 0
DWIDTH 21 0
BBX 20 31 0 1
BITMAP
000700
000F00
000E00
001C00
003800
007000
000000
000000
000000
01FC10
07FE60
1FFF40
3C0FC0
300FC0
61FBC0
4373C0
4423C0
4043C0
4083C0
4183C0
2103C0
13FFC0
0FFFC0
0FFFC0
0803C0
1003C0
3C03C0
7F07C0
5FEBF0
C3F1E0
40C080
ENDCHAR
STARTCHAR 00C2
ENCODING 194
SWIDTH 583 0
DWIDTH 21 0
BBX 20 31 0 1
BITMAP
003000
007800
007C00
00CC00
008600
010200
000000
000000
000000
01FC10
07FE60
1FFF40
3C0FC0
300FC0
61FBC0
4373C0
4423C0
4043C0
4083C0
4183C0
2103C0
13FFC0
0FFFC0
0FFFC0
0803C0
1003C0
3C03C0
7F07C0
5FEBF0
C3F1E0
40C080
ENDCHAR
STARTCHAR 00C3
ENCODING 195
SWIDTH 583 0
DWIDTH 21 0
BBX 20 30 0 0
BITMAP
00E100
01FF00
007E00
000000
000000
000000
000000
000000
01FC10
07FE60
1FFF40
3C0FC0
300FC0
61FBC0
4373C0
4423C0
4043C0
4083C0
4183C0
2103C0
13FFC0
0FFFC0
0FFFC0
0803C0
1003C0
3C03C0
7F07C0
5FEBF0
C3F1E0
40C080
ENDCHAR
STARTCHAR 00C4
ENCODING 196
SWIDTH 583 0
DWIDTH 21 0
BBX 20 30 0 1
BITMAP
018600
03CF00
03CF00
018600
000000
000000
000000
000000
01FC10
07FE60
1FFF40
3C0FC0
300FC0
61FBC0
4373C0
4423C0
4043C0
4083C0
4183C0
2103C0
13FFC0
0FFFC0
0FFFC0
0803C0
1003C0
3C03C0
7F07C0
5FEBF0
C3F1E0
40C080
ENDCHAR
STARTCHAR 00C5
ENCODING 197
SWIDTH 583 0
DWIDTH 21 0
BBX 20 32 0 0
BITMAP
003E00
007F00
00C380
00C180
00C180
00C380
007F00
003E00
000000
000000
01FC10
07FF20
1FFFE0
3C0FC0
300FC0
61F3C0
4373C0
4463C0
4043C0
4083C0
4103C0
2303C0
13FFC0
0FFFC0
0FFFC0
0803C0
1003C0
3C03C0
7F07E0
5FE9F0
C3F1E0
40C0C0
ENDCHAR
STARTCHAR 00C6
ENCODING 198
SWIDTH 888 0
DWIDTH 32 0
BBX 31 22 0 1
BITMAP
03F070C0
0FFCE1E0
1FFEC3FE
381F87FC
31FF8D38
63F79D10
44279D3C
40479D7C
40C79DF8
40879D00
41079D00
22079D00
17FF9D00
1FFF9900
0FFF9900
1803D100
1003E100
3C03E102
7F07F906
5FF8FFFC
83E03FF0
C0C00FC0
ENDCHAR
STARTCHAR 00C7
ENCODING 199
SWIDTH 583 0
DWIDTH 21 0
BBX 20 30 1 -9
BITMAP
001800
003F80
0C7FC0
19A780
332000
372000
672000
672000
E72000
E72000
E72000
E72000
E72000
F62000
F42000
7C2000
7C2010
3E2060
3FA1C0
1FFF80
07FF00
01FC00
004000
004000
00F800
001C00
000C00
000C00
03FC00
00F800
ENDCHAR
STARTCHAR 00C8
ENCODING 200
SWIDTH 583 0
DWIDTH 21 0
BBX 20 31 1 1
BITMAP
038000
01C000
00E000
007000
003800
000800
000000
000000
000000
001C00
003FE0
08FFC0
192780
332100
372200
6727C0
672FC0
E73F80
E72000
E72000
E72000
E72000
F62000
F42000
782000
7C2010
3E2060
3FA1C0
1FFF80
07FF00
01FC00
ENDCHAR
STARTCHAR 00C9
ENCODING 201
SWIDTH 583 0
DWIDTH 21 0
BBX 20 31 1 1
BITMAP
000E00
001E00
003C00
007000
00E000
008000
000000
000000
000000
001C00
003FE0
08FFC0
192780
332100
372200
6727C0
672FC0
E73F80
E72000
E72000
E72000
E72000
F62000
F42000
782000
7C2010
3E2060
3FA1C0
1FFF80
07FF00
01FC00
ENDCHAR
STARTCHAR 00CA
ENCODING 202
SWIDTH 583 0
DWIDTH 21 0
BBX 20 31 1 1
BITMAP
007000
00F000
01F800
019C00
030600
000200
000000
000000
000000
001C00
003FE0
08FFC0
192780
332100
372200
6727C0
672FC0
E73F80
E72000
E72000
E72000
E72000
F62000
F42000
782000
7C2010
3E2060
3FA1C0
1FFF80
07FF00
01FC00
ENDCHAR
STARTCHAR 00CB
ENCODING 203
SWIDTH 583 0
DWIDTH 21 0
BBX 20 30 1 1
BITMAP
030C00
079E00
030E00
000400
000000
000000
000000
000000
001C00
003FE0
08FFC0
192780
332100
372200
6727C0
672FC0
E73F80
E72000
E72000
E72000
E72000
F62000
F42000
782000
7C2010
3E2060
3FA1C0
1FFF80
07FF00
01FC00
ENDCHAR
STARTCHAR 00CC
ENCODING 204
SWIDTH 472 0
DWIDTH 17 0
BBX 16 31 -1 1
BITMAP
0380
03C0
01C0
0060
0038
0000
0000
0000
0000
1FF3
2766
40CE
01DE
019E
039E
039E
039E
0F9E
1F9E
3F9E
03DF
01CF
01CF
01CF
01CF
01CF
038E
3F0E
7E0E
FF0C
81F0
ENDCHAR
STARTCHAR 00CD
ENCODING 205
SWIDTH 472 0
DWIDTH 17 0
BBX 16 31 -1 1
BITMAP
000E
001E
003C
0070
00E0
0080
0000
0000
0000
1FF3
2766
40CE
01DE
019E
039E
039E
039E
0F9E
1F9E
3F9E
03DF
01CF
01CF
01CF
01CF
01CF
038E
3F0E
7E0E
FF0C
81F0
ENDCHAR
STARTCHAR 00CE
ENCODING 206
SWIDTH 472 0
DWIDTH 17 0
BBX 16 31 -1 1
BITMAP
0060
00F0
01F8
019C
0306
0002
0000
0000
0000
1FF3
2766
40CE
01DE
019E
039E
039E
039E
0F9E
1F9E
3F9E
03DF
01CF
01CF
01CF
01CF
01CF
038E
3F0E
7E0E
FF0C
81F0
ENDCHAR
STARTCHAR 00CF
ENCODING 207
SWIDTH 472 0
DWIDTH 17 0
BBX 16 30 -1 1
BITMAP
030C
079E
070E
0200
0000
0000
0000
0000
1FF3
2766
40CE
01DE
019E
039E
039E
039E
0F9E
1F9E
3F9E
03DF
01CF
01CF
01CF
01CF
01CF
038E
3F0E
7E0E
FF0C
81F0
ENDCHAR
STARTCHAR 00D0
ENCODING 208
SWIDTH 722 0
DWIDTH 26 0
BBX 25 25 0 -1
BITMAP
40000000
7FFFF000
7FFFF800
3FFFFC00
00343E00
00D40E00
01940F00
01940700
03940700
03940700
07940380
FFFFC380
FFFFC380
07940380
07940380
07940380
07140380
07340380
0E240380
0E7FC380
19FFFF00
13FFFC00
2E00F800
10001000
60000000
ENDCHAR
STARTCHAR 00D1
ENCODING 209
SWIDTH 694 0
DWIDTH 25 0
BBX 27 33 -2 -3
BITMAP
00070800
000FF800
0013F000
00000000
00000000
00000000
00000000
00000000
00006000
0001F800
0007FE00
001C3F00
00741F00
00740F80
00740780
0FF40780
01F7BF80
00F44380
00740780
07F40700
01F7F700
00F40F00
00740E00
03F40C00
00F41C00
00741800
00343720
00343FC0
00287F80
1FD87F80
7FF0C000
DFE08000
01800000
ENDCHAR
STARTCHAR 00D2
ENCODING 210
SWIDTH 666 0
DWIDTH 24 0
BBX 22 31 1 1
BITMAP
018000
01C000
00E000
007000
003800
000800
000000
000000
000000
001C00
003F80
00FFE0
01A3F0
07A0F8
1BA078
33A03C
73B07C
E3AF9C
E3A01C
E3A01C
E3A71C
E3B8DC
F32038
F32030
F22070
FC20E0
7C21C0
3E2300
3FFE00
0FFC00
07E000
ENDCHAR
STARTCHAR 00D3
ENCODING 211
SWIDTH 666 0
DWIDTH 24 0
BBX 22 31 1 1
BITMAP
000E00
001C00
001800
003000
006000
004000
000000
000000
000000
001C00
003F80
00FFE0
01A3F0
07A0F8
1BA078
33A03C
73B07C
E3AF9C
E3A01C
E3A01C
E3A71C
E3B8DC
F32038
F32030
F22070
FC20E0
7C21C0
3E2300
3FFE00
0FFC00
07E000
ENDCHAR
STARTCHAR 00D4
ENCODING 212
SWIDTH 666 0
DWIDTH 24 0
BBX 22 31 1 1
BITMAP
007000
007000
00D800
019C00
010400
020000
000000
000000
000000
001C00
003F80
00FFE0
01A3F0
07A0F8
1BA078
33A03C
73B07C
E3AF9C
E3A01C
E3A01C
E3A71C
E3B8DC
F32038
F32030
F22070
FC20E0
7C21C0
3E2300
3FFE00
0FFC00
07E000
ENDCHAR
STARTCHAR 00D5
ENCODING 213
SWIDTH 666 0
DWIDTH 24 0
BBX 22 30 1 0
BITMAP
01C200
01FE00
027C00
000000
000000
000000
000000
000000
001C00
003F80
00FFE0
01A3F0
07A0F8
1BA078
33A03C
73B07C
E3AF9C
E3A01C
E3A01C
E3A71C
E3B8DC
F32038
F32030
F22070
FC20E0
7C21C0
3E2300
3FFE00
0FFC00
07E000
ENDCHAR
STARTCHAR 00D6
ENCODING 214
SWIDTH 666 0
DWIDTH 24 0
BBX 22 30 1 1
BITMAP
018C00
039E00
038C00
010000
000000
000000
000000
000000
001C00
003F80
00FFE0
01A3F0
07A0F8
1BA078
33A03C
73B07C
E3AF9C
E3A01C
E3A01C
E3A71C
E3B8DC
F32038
F32030
F22070
FC20E0
7C21C0
3E2300
3FFE00
0FFC00
07E000
ENDCHAR
STARTCHAR 00D7
ENCODING 215
SWIDTH 805 0
DWIDTH 29 0
BBX 19 19 5 1
BITMAP
400040
E000E0
7001C0
380380
1C0700
0E0E00
071C00
03B800
01F000
00E000
01F000
03B800
071C00
0E0E00
1C0700
380380
7001C0
E000E0
400040
ENDCHAR
STARTCHAR 00D8
ENCODING 216
SWIDTH 666 0
DWIDTH 24 0
BBX 23 25 0 -2
BITMAP
00000C
000018
000FB0
001FE0
007FF8
00D1F8
03D1FC
05D33E
19D21E
39D63E
31DFCE
71D80E
71F00E
71F38E
71DC6C
71901C
799018
7B1030
3E1070
3E10C0
3F9180
1FFF00
3FFE00
63F000
C00000
ENDCHAR
STARTCHAR 00D9
ENCODING 217
SWIDTH 750 0
DWIDTH 27 0
BBX 25 31 0 1
BITMAP
00180000
001C0000
000E0000
00078000
0001C000
00008000
00000000
00000000
00000000
1FFC0900
3FF43F00
60545E00
41B48E00
83340E00
06740E00
0C740E00
0C740E00
1877FE00
18740E00
38740E00
3875EE00
38761E00
38740E00
3C640E00
3C440E00
1EC40E00
1F041E00
0FC47E00
07FFCE80
03FF0700
00FC0600
ENDCHAR
STARTCHAR 00DA
ENCODING 218
SWIDTH 750 0
DWIDTH 27 0
BBX 25 31 0 1
BITMAP
00007000
0000E000
0001C000
00038000
00060000
00040000
00000000
00000000
00000000
1FFC0900
3FF43F00
60545E00
41B48E00
83340E00
06740E00
0C740E00
0C740E00
1877FE00
18740E00
38740E00
3875EE00
38761E00
38740E00
3C640E00
3C440E00
1EC40E00
1F041E00
0FC47E00
07FFCE80
03FF0700
00FC0600
ENDCHAR
STARTCHAR 00DB
ENCODING 219
SWIDTH 750 0
DWIDTH 27 0
BBX 25 31 0 1
BITMAP
00070000
00078000
000DC000
0018C000
00106000
00201000
00000000
00000000
00000000
1FFC0900
3FF43F00
60545E00
41B48E00
83340E00
06740E00
0C740E00
0C740E00
1877FE00
18740E00
38740E00
3875EE00
38761E00
38740E00
3C640E00
3C440E00
1EC40E00
1F041E00
0FC47E00
07FFCE80
03FF0700
00FC0600
ENDCHAR
STARTCHAR 00DC
ENCODING 220
SWIDTH 750 0
DWIDTH 27 0
BBX 25 30 0 1
BITMAP
00106000
0039F000
0038E000
00104000
00000000
00000000
00000000
00000000
1FFC0900
3FF43F00
60545E00
41B48E00
83340E00
06740E00
0C740E00
0C740E00
1877FE00
18740E00
38740E00
3875EE00
38761E00
38740E00
3C640E00
3C440E00
1EC40E00
1F041E00
0FC47E00
07FFCE80
03FF0700
00FC0600
ENDCHAR
STARTCHAR 00DD
ENCODING 221
SWIDTH 666 0
DWIDTH 24 0
BBX 22 36 0 -4
BITMAP
0001C0
000380
000700
000E00
001C00
001000
000000
000000
000000
3E07C0
079FF0
03F0F8
039078
03907C
03903C
3F903C
0F9CFC
07933C
03903C
03903C
3F97BC
0F987C
079038
039078
039070
0390E0
0391C0
3FFF00
600000
C00000
800000
801F00
80FF80
41F180
7FC180
1F0000
ENDCHAR
STARTCHAR 00DE
ENCODING 222
SWIDTH 638 0
DWIDTH 23 0
BBX 19 26 1 -5
BITMAP
7C4000
0E4000
074E00
075F80
077FC0
07C7C0
0741E0
0741E0
0740E0
1F40E0
677FE0
E740E0
F740E0
3F4CE0
1F73E0
0F40E0
0740E0
0770E0
1F7EC0
7F7F80
FF7F00
874200
074000
074000
074000
07C000
ENDCHAR
STARTCHAR 00DF
ENCODING 223
SWIDTH 444 0
DWIDTH 16 0
BBX 14 25 1 -4
BITMAP
0700
1F00
3800
3800
3800
F8E0
F9F0
3A78
3C70
3820
3840
38F0
38F8
39FC
383C
381C
381C
381C
7818
3F38
0E70
04C0
0180
0100
0100
ENDCHAR
STARTCHAR 00E0
ENCODING 224
SWIDTH 361 0
DWIDTH 13 0
BBX 12 24 1 1
BITMAP
3800
1C00
0E00
0700
0380
0000
0000
0400
1F80
7FE0
23C0
21C0
21C0
31C0
2DC0
63C0
E1C0
C1C0
E1C0
E1C0
F3C0
F5F0
79E0
20C0
ENDCHAR
STARTCHAR 00E1
ENCODING 225
SWIDTH 361 0
DWIDTH 13 0
BBX 12 25 1 0
BITMAP
0080
00E0
01C0
0380
0700
0E00
0000
0000
0400
1F80
7FE0
23C0
21C0
21C0
31C0
2DC0
63C0
E1C0
C1C0
E1C0
E1C0
F3C0
F5F0
79E0
20C0
ENDCHAR
STARTCHAR 00E2
ENCODING 226
SWIDTH 361 0
DWIDTH 13 0
BBX 12 24 1 1
BITMAP
0700
0F00
1F80
19C0
2040
0000
0000
0400
1F80
7FE0
23C0
21C0
21C0
31C0
2DC0
63C0
E1C0
C1C0
E1C0
E1C0
F3C0
F5F0
79E0
20C0
ENDCHAR
STARTCHAR 00E3
ENCODING 227
SWIDTH 361 0
DWIDTH 13 0
BBX 12 22 1 1
BITMAP
3FE0
47C0
0000
0000
0000
0400
1F80
7FE0
23C0
21C0
21C0
31C0
2DC0
63C0
E1C0
C1C0
E1C0
E1C0
F3C0
F5F0
79E0
20C0
ENDCHAR
STARTCHAR 00E4
ENCODING 228
SWIDTH 361 0
DWIDTH 13 0
BBX 12 23 1 1
BITMAP
30C0
79E0
30C0
0000
0000
0000
0400
1F80
7FE0
23C0
21C0
21C0
31C0
2DC0
63C0
E1C0
C1C0
E1C0
E1C0
F3C0
F5F0
79E0
20C0
ENDCHAR
STARTCHAR 00E5
ENCODING 229
SWIDTH 361 0
DWIDTH 13 0
BBX 12 26 1 0
BITMAP
0F00
1FC0
38C0
3060
3060
30C0
1FC0
0F00
0000
0400
1F80
7FE0
23C0
21C0
21C0
11C0
2DC0
63C0
E1C0
E1C0
E1C0
E1C0
F3C0
F5F0
79E0
20C0
ENDCHAR
STARTCHAR 00E6
ENCODING 230
SWIDTH 472 0
DWIDTH 17 0
BBX 16 17 1 0
BITMAP
0410
1FB8
7FFC
23DE
21CF
21CE
11C4
2DC8
63F0
E1C0
E1C0
E1C0
E1C0
F3C2
F5F4
79F8
2020
ENDCHAR
STARTCHAR 00E7
ENCODING 231
SWIDTH 277 0
DWIDTH 10 0
BBX 8 25 1 -9
BITMAP
0C
1E
3F
77
72
70
70
70
70
70
70
70
70
78
FF
1E
18
10
10
1C
0F
03
03
7F
3E
ENDCHAR
STARTCHAR 00E8
ENCODING 232
SWIDTH 305 0
DWIDTH 11 0
BBX 9 24 2 1
BITMAP
E000
7000
3800
1C00
0E00
0000
0000
0800
3C00
7E00
FF00
EF80
E700
E200
EC00
F000
E000
E000
E000
E000
E100
FA00
7C00
1000
ENDCHAR
STARTCHAR 00E9
ENCODING 233
SWIDTH 305 0
DWIDTH 11 0
BBX 9 24 2 1
BITMAP
0780
0700
0E00
1C00
3000
0000
0000
0800
3C00
7E00
FF00
EF80
E700
E200
EC00
F000
E000
E000
E000
E000
E100
FA00
7C00
1000
ENDCHAR
STARTCHAR 00EA
ENCODING 234
SWIDTH 305 0
DWIDTH 11 0
BBX 9 24 2 1
BITMAP
3800
3C00
6E00
C600
8300
0000
0000
0800
3C00
7E00
FF00
EF80
E700
E200
EC00
F000
E000
E000
E000
E000
E100
FA00
7C00
1000
ENDCHAR
STARTCHAR 00EB
ENCODING 235
SWIDTH 305 0
DWIDTH 11 0
BBX 10 24 1 0
BITMAP
0100
6380
F3C0
6380
0100
0000
0000
0400
1E00
3F00
7F80
77C0
7380
7100
7600
7800
7000
7000
7000
7000
7080
FD00
3E00
0800
ENDCHAR
STARTCHAR 00EC
ENCODING 236
SWIDTH 194 0
DWIDTH 7 0
BBX 7 24 0 1
BITMAP
E0
E0
70
38
0C
00
00
10
38
7C
38
38
38
38
38
38
38
38
38
38
38
3E
3C
18
ENDCHAR
STARTCHAR 00ED
ENCODING 237
SWIDTH 194 0
DWIDTH 7 0
BBX 7 24 1 1
BITMAP
0E
1C
38
30
E0
00
00
20
70
F8
70
70
70
70
70
70
70
70
70
70
70
7C
78
30
ENDCHAR
STARTCHAR 00EE
ENCODING 238
SWIDTH 194 0
DWIDTH 7 0
BBX 9 24 -1 1
BITMAP
1C00
1C00
3600
6300
C180
0000
0000
0800
1C00
3E00
1C00
1C00
1C00
1C00
1C00
1C00
1C00
1C00
1C00
1C00
1C00
1F00
1E00
0C00
ENDCHAR
STARTCHAR 00EF
ENCODING 239
SWIDTH 194 0
DWIDTH 7 0
BBX 9 24 -1 0
BITMAP
4100
E300
F780
E300
4000
0000
0000
0800
1C00
3E00
1C00
1C00
1C00
1C00
1C00
1C00
1C00
1C00
1C00
1C00
1C00
1F00
1E00
0C00
ENDCHAR
STARTCHAR 00F0
ENCODING 240
SWIDTH 361 0
DWIDTH 13 0
BBX 11 22 1 0
BITMAP
2000
F8E0
3F80
1F00
7F80
43C0
03C0
0FC0
70E0
70E0
70E0
70E0
70E0
70E0
70E0
70E0
70E0
70E0
78E0
7FE0
0F00
0600
ENDCHAR
STARTCHAR 00F1
ENCODING 241
SWIDTH 388 0
DWIDTH 14 0
BBX 13 22 1 1
BITMAP
3FE0
07C0
0000
0000
0000
2080
61C0
F3D0
75E0
78E0
70E0
70E0
70E0
70E0
70E0
70E0
70E0
70E0
70E0
F8F8
7070
2060
ENDCHAR
STARTCHAR 00F2
ENCODING 242
SWIDTH 361 0
DWIDTH 13 0
BBX 10 24 2 1
BITMAP
7000
3800
1C00
0E00
0700
0000
0000
0800
1E00
7FC0
EFC0
E3C0
E1C0
E1C0
E1C0
E1C0
E1C0
E1C0
E1C0
E1C0
F1C0
FF80
1E00
0C00
ENDCHAR
STARTCHAR 00F3
ENCODING 243
SWIDTH 361 0
DWIDTH 13 0
BBX 10 25 2 0
BITMAP
0100
01C0
0380
0700
0E00
1800
0000
0000
0800
1E00
7FC0
EFC0
E3C0
E1C0
E1C0
E1C0
E1C0
E1C0
E1C0
E1C0
E1C0
F1C0
FF80
1E00
0C00
ENDCHAR
STARTCHAR 00F4
ENCODING 244
SWIDTH 361 0
DWIDTH 13 0
BBX 10 24 2 1
BITMAP
1C00
1E00
3700
6300
4180
0000
0000
0800
1E00
7FC0
EFC0
E3C0
E1C0
E1C0
E1C0
E1C0
E1C0
E1C0
E1C0
E1C0
F1C0
FF80
1E00
0C00
ENDCHAR
STARTCHAR 00F5
ENCODING 245
SWIDTH 361 0
DWIDTH 13 0
BBX 10 22 2 1
BITMAP
7FC0
8F80
0000
0000
0000
0800
1E00
7FC0
EFC0
E3C0
E1C0
E1C0
E1C0
E1C0
E1C0
E1C0
E1C0
E1C0
F1C0
FF80
1E00
0C00
ENDCHAR
STARTCHAR 00F6
ENCODING 246
SWIDTH 361 0
DWIDTH 13 0
BBX 10 23 2 1
BITMAP
6180
F3C0
6180
0000
0000
0000
0800
1E00
7FC0
EFC0
E3C0
E1C0
E1C0
E1C0
E1C0
E1C0
E1C0
E1C0
E1C0
F1C0
FF80
1E00
0C00
ENDCHAR
STARTCHAR 00F7
ENCODING 247
SWIDTH 805 0
DWIDTH 29 0
BBX 20 17 5 3
BITMAP
006000
00F000
00F000
006000
000000
000000
000000
FFFFF0
FFFFF0
FFFFF0
000000
000000
000000
006000
00F000
00F000
006000
ENDCHAR
STARTCHAR 00F8
ENCODING 248
SWIDTH 361 0
DWIDTH 13 0
BBX 11 22 1 -3
BITMAP
0080
0180
0580
0F00
3FC0
77E0
72E0
72E0
72E0
72E0
76E0
74E0
74E0
74E0
74E0
78E0
FFC0
1F00
1E00
1000
1000
3000
ENDCHAR
STARTCHAR 00F9
ENCODING 249
SWIDTH 388 0
DWIDTH 14 0
BBX 13 24 1 1
BITMAP
3800
1C00
0E00
0700
0180
0000
0000
2040
70E0
F9F0
70E0
70E0
70E0
70E0
70E0
70E0
70E0
70E0
70E0
70E0
71E0
7EF8
38F0
3060
ENDCHAR
STARTCHAR 00FA
ENCODING 250
SWIDTH 388 0
DWIDTH 14 0
BBX 13 24 1 1
BITMAP
00E0
01C0
0380
0700
0C00
0000
0000
2040
70E0
F9F0
70E0
70E0
70E0
70E0
70E0
70E0
70E0
70E0
70E0
70E0
71E0
7EF8
38F0
3060
ENDCHAR
STARTCHAR 00FB
ENCODING 251
SWIDTH 388 0
DWIDTH 14 0
BBX 13 24 1 1
BITMAP
0700
0F00
1D80
18C0
3060
0000
0000
2040
70E0
F9F0
70E0
70E0
70E0
70E0
70E0
70E0
70E0
70E0
70E0
70E0
71E0
7EF8
38F0
3060
ENDCHAR
STARTCHAR 00FC
ENCODING 252
SWIDTH 388 0
DWIDTH 14 0
BBX 13 23 1 1
BITMAP
30C0
79E0
30C0
0000
0000
0000
2040
70E0
F9F0
70E0
70E0
70E0
70E0
70E0
70E0
70E0
70E0
70E0
70E0
71E0
7EF8
38F0
3060
ENDCHAR
STARTCHAR 00FD
ENCODING 253
SWIDTH 388 0
DWIDTH 14 0
BBX 13 29 0 -4
BITMAP
0040
0070
00E0
01C0
0380
0600
0000
0000
0800
1870
3CF0
5D78
1E78
1C38
1C38
1C38
1C38
1C30
1C60
1C60
1C80
1D00
1E00
3800
6000
4000
8000
8000
4600
ENDCHAR
STARTCHAR 00FE
ENCODING 254
SWIDTH 388 0
DWIDTH 14 0
BBX 11 26 1 -4
BITMAP
8800
7000
7000
7000
7000
7180
73C0
77C0
7DE0
78E0
70E0
70E0
70E0
70E0
70E0
70E0
70E0
70E0
7CE0
7FC0
7F00
7200
7000
7000
7800
9800
ENDCHAR
STARTCHAR 00FF
ENCODING 255
SWIDTH 388 0
DWIDTH 14 0
BBX 13 27 0 -3
BITMAP
1860
3CF0
1860
0000
0000
0000
0800
1870
3CF0
5D78
1E78
1C38
1C38
1C38
1C38
1C30
1C60
1C60
1C80
1D00
1E00
3800
6000
4000
8000
8000
4600
ENDCHAR
STARTCHAR 0152
ENCODING 338
SWIDTH 972 0
DWIDTH 35 0
BBX 34 22 1 0
BITMAP
0038001800
00FE047F80
037F08FF80
0647912700
0E43F32200
3E41E72400
6E41E72F80
CE76E72F00
CE48E73F00
CE40E72000
CE4CE72000
CE72E72000
CE41E72000
CC41E62000
CC41F62000
E841F42000
F043782040
F0463C2080
784C3E2180
7FF81FFF00
3FF00FFE00
0F8003F800
ENDCHAR
STARTCHAR 0153
ENCODING 339
SWIDTH 472 0
DWIDTH 17 0
BBX 15 17 2 0
BITMAP
0800
1E70
7FF8
EFFC
E3DE
E1CC
E1C8
E1D0
E1E0
E1C0
E1C0
E1C0
E1C0
F1C0
FFF8
1FF0
0C60
ENDCHAR
STARTCHAR 0160
ENCODING 352
SWIDTH 694 0
DWIDTH 25 0
BBX 24 31 0 1
BITMAP
0060C0
003180
001B00
001F00
000E00
000C00
000000
000000
000000
007080
00FF80
031F00
040700
0C0200
0E0200
0FFFE0
3FFFF8
27FFFE
61F03E
70100F
781787
3FFFE7
1FFFE7
07FFE7
1F8046
7FF88E
FFFF1C
C1FFF8
C03FF0
40CFC0
430300
ENDCHAR
STARTCHAR 0161
ENCODING 353
SWIDTH 361 0
DWIDTH 13 0
BBX 13 24 0 1
BITMAP
3060
18C0
0D80
0F80
0700
0018
0018
0408
1FB0
3FE0
77E0
7040
7080
71C0
79E0
7FF0
1C70
0870
1870
1070
2E70
7FF0
7FC0
C300
ENDCHAR
STARTCHAR 0178
ENCODING 376
SWIDTH 666 0
DWIDTH 24 0
BBX 22 35 0 -4
BITMAP
006180
00F3C0
00E180
004000
000000
000000
000000
000000
3E07C0
079FF0
03F0F8
039078
03907C
03903C
3F903C
0F9CFC
07933C
03903C
03903C
3F97BC
0F987C
079038
039078
039070
0390E0
0391C0
3FFF00
600000
C00000
800000
801F00
80FF80
41F180
7FC180
1F0000
ENDCHAR
STARTCHAR 0192
ENCODING 402
SWIDTH 305 0
DWIDTH 11 0
BBX 10 25 0 -3
BITMAP
03C0
07C0
0EC0
0E00
0E00
0E00
0E00
3F80
3F80
0E00
0E00
0E00
0E00
0E00
0E00
0E00
0E00
0E00
0E00
0E00
0E00
0E00
0E00
F800
7000
ENDCHAR
STARTCHAR 02C6
ENCODING 710
SWIDTH 472 0
DWIDTH 17 0
BBX 9 5 4 19
BITMAP
1C00
3C00
3600
6300
C180
ENDCHAR
STARTCHAR 02DC
ENCODING 732
SWIDTH 472 0
DWIDTH 17 0
BBX 9 2 4 20
BITMAP
7F80
8F00
ENDCHAR
STARTCHAR 2013
ENCODING 8211
SWIDTH 472 0
DWIDTH 17 0
BBX 17 3 0 7
BITMAP
FFFF80
FFFF80
FFFF80
ENDCHAR
STARTCHAR 2014
ENCODING 8212
SWIDTH 972 0
DWIDTH 35 0
BBX 34 3 0 7
BITMAP
FFFFFFFFC0
FFFFFFFFC0
FFFFFFFFC0
ENDCHAR
STARTCHAR 2018
ENCODING 8216
SWIDTH 222 0
DWIDTH 8 0
BBX 4 6 1 15
BITMAP
10
20
60
E0
F0
60
ENDCHAR
STARTCHAR 2019
ENCODING 8217
SWIDTH 222 0
DWIDTH 8 0
BBX 4 6 1 16
BITMAP
60
F0
60
60
40
80
ENDCHAR
STARTCHAR 201A
ENCODING 8218
SWIDTH 222 0
DWIDTH 8 0
BBX 4 8 1 -2
BITMAP
60
60
F0
70
60
40
C0
80
ENDCHAR
STARTCHAR 201C
ENCODING 8220
SWIDTH 388 0
DWIDTH 14 0
BBX 11 7 2 15
BITMAP
0820
30C0
61C0
71C0
FBE0
71C0
2080
ENDCHAR
STARTCHAR 201D
ENCODING 8221
SWIDTH 388 0
DWIDTH 14 0
BBX 11 7 2 15
BITMAP
2080
71C0
FBE0
71C0
70C0
6180
8200
ENDCHAR
STARTCHAR 201E
ENCODING 8222
SWIDTH 388 0
DWIDTH 14 0
BBX 11 7 2 -2
BITMAP
2080
71C0
FBE0
71C0
70C0
6180
C300
ENDCHAR
STARTCHAR 2020
ENCODING 8224
SWIDTH 472 0
DWIDTH 17 0
BBX 13 26 2 -4
BITMAP
0100
0700
0700
0700
0700
0708
7FF0
FFF0
FFF0
8700
0700
0700
0700
0700
0700
0700
0700
0700
0700
0700
0700
0700
0700
0700
0700
0400
ENDCHAR
STARTCHAR 2021
ENCODING 8225
SWIDTH 472 0
DWIDTH 17 0
BBX 13 25 2 -4
BITMAP
0100
0700
0700
0700
0700
0708
7FF0
FFF0
FFF0
0700
0700
0700
0700
0700
0700
0708
7FF0
FFF0
FFF0
0700
0700
0700
0700
0700
0700
ENDCHAR
STARTCHAR 2022
ENCODING 8226
SWIDTH 583 0
DWIDTH 21 0
BBX 9 10 5 9
BITMAP
3E00
7F00
FF00
FF80
FF80
FF80
FF80
7F00
7F00
1C00
ENDCHAR
STARTCHAR 2026
ENCODING 8230
SWIDTH 972 0
DWIDTH 35 0
BBX 28 5 3 1
BITMAP
20060040
700F00E0
F81F81F0
700F00E0
20040040
ENDCHAR
STARTCHAR 2030
ENCODING 8240
SWIDTH 1000 0
DWIDTH 36 0
BBX 34 22 1 0
BITMAP
0000600000
1E00C00000
3F00800000
6381800000
41C3000000
C0C3000000
C0C6000000
C0C6000000
E0CC000000
E098600400
7998F00F00
3F317C1780
1E331C3380
00620E61C0
00460660C0
00C60660C0
01860660C0
01870670C0
0303843080
0303C83D00
0601F01F00
0C00600400
ENDCHAR
STARTCHAR 2039
ENCODING 8249
SWIDTH 277 0
DWIDTH 10 0
BBX 6 11 2 3
BITMAP
08
1C
38
30
70
E0
E0
70
38
18
1C
ENDCHAR
STARTCHAR 203A
ENCODING 8250
SWIDTH 277 0
DWIDTH 10 0
BBX 6 11 2 3
BITMAP
40
E0
70
30
38
1C
1C
38
70
60
E0
ENDCHAR
STARTCHAR 2122
ENCODING 8482
SWIDTH 805 0
DWIDTH 29 0
BBX 20 9 4 15
BITMAP
FF7070
9938E0
9938E0
182960
182D60
182D60
182660
182660
182460
ENDCHAR
STARTCHAR 2219
ENCODING 8729
SWIDTH 222 0
DWIDTH 8 0
BBX 4 4 2 9
BITMAP
70
F0
F0
70
ENDCHAR
ENDFONT
